RobotoSerifTextWide-Super 02h.ufo
<glyph name="exclam" format="2">
  <advance width="410"/>
  <unicode hex="0021"/>
  <outline>
    <contour>
      <point x="346" y="710" type="line"/>
      <point x="346.0" y="550.8421052631579"/>
      <point x="293.0" y="453.0"/>
      <point x="293" y="262" type="curve"/>
      <point x="117" y="262" type="line"/>
      <point x="117.0" y="453.0"/>
      <point x="65.0" y="549.859649122807"/>
      <point x="65" y="710" type="curve"/>
    </contour>
    <component base="period" xOffset="4"/>
  </outline>
</glyph>
<glyph name="comma" format="2">
  <advance width="397"/>
  <unicode hex="002C"/>
  <guideline x="281" y="211" angle="0" identifier="VWLBeU53Nf"/>
  <outline>
    <contour>
      <point x="176" y="-195" type="line"/>
      <point x="296.77922426546684" y="-119.0259718330128"/>
      <point x="347.0" y="-20"/>
      <point x="347" y="69" type="curve" smooth="yes"/>
      <point x="347" y="166"/>
      <point x="285.5586206896552" y="211.0"/>
      <point x="196" y="211" type="curve" smooth="yes"/>
      <point x="110.30075187969925" y="211.0"/>
      <point x="57.0" y="162.09016393442624"/>
      <point x="57" y="94" type="curve" smooth="yes"/>
      <point x="57.0" y="27.971153846153854"/>
      <point x="109.89928057553956" y="-15.0"/>
      <point x="186" y="-15" type="curve" smooth="yes"/>
      <point x="214" y="-15"/>
      <point x="231" y="-13"/>
      <point x="246" y="0" type="curve"/>
      <point x="241" y="8"/>
      <point x="203" y="14"/>
      <point x="203" y="11" type="curve"/>
      <point x="196.00799368948523" y="-35.94632808488485"/>
      <point x="129.13276884439873" y="-90.02036010232507"/>
      <point x="28" y="-132" type="curve"/>
    </contour>
  </outline>
</glyph>
<glyph name="zero" format="2">
  <advance width="664"/>
  <unicode hex="0030"/>
  <outline>
    <contour>
      <point x="332" y="-11" type="curve" smooth="yes"/>
      <point x="519" y="-11"/>
      <point x="651" y="109"/>
      <point x="651" y="304" type="curve" smooth="yes"/>
      <point x="651" y="499"/>
      <point x="518" y="619"/>
      <point x="332" y="619" type="curve" smooth="yes"/>
      <point x="146" y="619"/>
      <point x="13" y="499"/>
      <point x="13" y="304" type="curve" smooth="yes"/>
      <point x="13" y="109"/>
      <point x="145" y="-11"/>
    </contour>
    <contour>
      <point x="332" y="78" type="curve" smooth="yes"/>
      <point x="294" y="78"/>
      <point x="285" y="117"/>
      <point x="285" y="304" type="curve" smooth="yes"/>
      <point x="285" y="491"/>
      <point x="294" y="530"/>
      <point x="332" y="530" type="curve" smooth="yes"/>
      <point x="370" y="530"/>
      <point x="379" y="491"/>
      <point x="379" y="304" type="curve" smooth="yes"/>
      <point x="379" y="117"/>
      <point x="370" y="78"/>
    </contour>
  </outline>
</glyph>
<glyph name="three" format="2">
  <advance width="664"/>
  <unicode hex="0033"/>
  <outline>
    <contour>
      <point x="280" y="3" type="curve" smooth="yes"/>
      <point x="350" y="3"/>
      <point x="387" y="44"/>
      <point x="387" y="121" type="curve" smooth="yes"/>
      <point x="387" y="190"/>
      <point x="367" y="241"/>
      <point x="261" y="241" type="curve" smooth="yes"/>
      <point x="200" y="241" type="line"/>
      <point x="200" y="326" type="line"/>
      <point x="246" y="326" type="line" smooth="yes"/>
      <point x="338" y="326"/>
      <point x="375" y="363"/>
      <point x="375" y="448" type="curve" smooth="yes"/>
      <point x="375" y="506"/>
      <point x="352" y="529"/>
      <point x="313" y="529" type="curve" smooth="yes"/>
      <point x="275.0" y="529.0"/>
      <point x="247.48175978508968" y="511.80698635624066"/>
      <point x="231" y="488" type="curve"/>
      <point x="226.0" y="496.0"/>
      <point x="226.0" y="542.0"/>
      <point x="264" y="545" type="curve"/>
      <point x="264" y="424" type="line"/>
      <point x="60" y="424" type="line"/>
      <point x="60" y="548" type="line"/>
      <point x="114" y="586"/>
      <point x="209.0" y="618.0"/>
      <point x="342" y="618" type="curve" smooth="yes"/>
      <point x="499" y="618"/>
      <point x="633" y="566"/>
      <point x="633" y="451" type="curve" smooth="yes"/>
      <point x="633" y="330"/>
      <point x="464" y="277"/>
      <point x="253" y="277" type="curve"/>
      <point x="274" y="295" type="line"/>
      <point x="545" y="295"/>
      <point x="653" y="226"/>
      <point x="653" y="114" type="curve" smooth="yes"/>
      <point x="653" y="-19"/>
      <point x="508" y="-90"/>
      <point x="328" y="-90" type="curve" smooth="yes"/>
      <point x="139" y="-90"/>
      <point x="56" y="-14"/>
      <point x="13" y="74" type="curve"/>
      <point x="104" y="130" type="line"/>
      <point x="139" y="56"/>
      <point x="191.50837988826814" y="3.0"/>
    </contour>
  </outline>
</glyph>
<glyph name="four" format="2">
  <advance width="664"/>
  <unicode hex="0034"/>
  <outline>
    <contour>
      <point x="23" y="78" type="line"/>
      <point x="658" y="78" type="line"/>
      <point x="658" y="218" type="line"/>
      <point x="129" y="218" type="line"/>
      <point x="88" y="141" type="line"/>
      <point x="358" y="529" type="line"/>
      <point x="376" y="609" type="line"/>
      <point x="297" y="609" type="line"/>
      <point x="23" y="220" type="line"/>
    </contour>
    <contour>
      <point x="585" y="-77" type="line"/>
      <point x="585" y="609" type="line"/>
      <point x="334" y="609" type="line"/>
      <point x="315" y="521" type="line"/>
      <point x="315" y="-77" type="line"/>
    </contour>
  </outline>
</glyph>
<glyph name="question" format="2">
  <advance width="699"/>
  <unicode hex="003F"/>
  <guideline x="323" y="200" angle="90" identifier="5sTe6HW9xe"/>
  <outline>
    <contour>
      <point x="248" y="391" type="line"/>
      <point x="351" y="422"/>
      <point x="400" y="473"/>
      <point x="400" y="547" type="curve" smooth="yes"/>
      <point x="400" y="595"/>
      <point x="377" y="626"/>
      <point x="313" y="626" type="curve" smooth="yes"/>
      <point x="280" y="626"/>
      <point x="244" y="613"/>
      <point x="218" y="585" type="curve"/>
      <point x="202" y="608"/>
      <point x="224" y="622"/>
      <point x="252" y="627" type="curve"/>
      <point x="252" y="524" type="line"/>
      <point x="33" y="524" type="line"/>
      <point x="33" y="640" type="line"/>
      <point x="74" y="673"/>
      <point x="182" y="720"/>
      <point x="345" y="720" type="curve" smooth="yes"/>
      <point x="571" y="720"/>
      <point x="673" y="644"/>
      <point x="673" y="539" type="curve" smooth="yes"/>
      <point x="673" y="414"/>
      <point x="522" y="362"/>
      <point x="395" y="337" type="curve"/>
      <point x="395" y="254" type="line"/>
      <point x="248" y="254" type="line"/>
    </contour>
    <component base="period" xOffset="120"/>
  </outline>
</glyph>
<glyph name="L" format="2">
  <advance width="769"/>
  <unicode hex="004C"/>
  <anchor x="446" y="741.0" name="top"/>
  <anchor x="555" y="710.0" name="right"/>
  <anchor x="558" y="410.0" name="mid"/>
  <anchor x="446" y="0.0" name="bottom"/>
  <outline>
    <contour>
      <point x="462" y="710" type="line"/>
      <point x="462" y="634" type="line"/>
      <point x="443" y="634" type="line" smooth="yes"/>
      <point x="414" y="634"/>
      <point x="393" y="627"/>
      <point x="393" y="598" type="curve" smooth="yes"/>
      <point x="393" y="86" type="line"/>
      <point x="468" y="86" type="line" smooth="yes"/>
      <point x="567" y="86"/>
      <point x="595" y="93"/>
      <point x="600" y="138" type="curve" smooth="yes"/>
      <point x="611" y="245" type="line"/>
      <point x="742" y="245" type="line"/>
      <point x="742" y="0" type="line"/>
      <point x="26" y="0" type="line"/>
      <point x="26" y="76" type="line"/>
      <point x="38" y="76" type="line" smooth="yes"/>
      <point x="65" y="76"/>
      <point x="84" y="83"/>
      <point x="84" y="112" type="curve" smooth="yes"/>
      <point x="84" y="598" type="line" smooth="yes"/>
      <point x="84" y="627"/>
      <point x="65" y="634"/>
      <point x="38" y="634" type="curve" smooth="yes"/>
      <point x="26" y="634" type="line"/>
      <point x="26" y="710" type="line"/>
    </contour>
  </outline>
</glyph>
<glyph name="R" format="2">
  <advance width="919"/>
  <unicode hex="0052"/>
  <anchor x="457" y="741.0" name="top"/>
  <anchor x="457" y="0.0" name="bottom"/>
  <outline>
    <contour>
      <point x="423" y="319" type="line"/>
      <point x="725" y="342" type="line"/>
      <point x="849" y="104" type="line" smooth="yes"/>
      <point x="860.5791038363936" y="81.77559102369615"/>
      <point x="873" y="76"/>
      <point x="888" y="76.0" type="curve" smooth="yes"/>
      <point x="900" y="76" type="line"/>
      <point x="900" y="0" type="line"/>
      <point x="569" y="0" type="line"/>
    </contour>
    <contour>
      <point x="26" y="0" type="line"/>
      <point x="26" y="76" type="line"/>
      <point x="38" y="76" type="line" smooth="yes"/>
      <point x="65" y="76"/>
      <point x="84" y="83"/>
      <point x="84" y="112" type="curve" smooth="yes"/>
      <point x="84" y="598" type="line" smooth="yes"/>
      <point x="84" y="627"/>
      <point x="65" y="634"/>
      <point x="38" y="634" type="curve" smooth="yes"/>
      <point x="26" y="634" type="line"/>
      <point x="26" y="710" type="line"/>
      <point x="523" y="710" type="line" smooth="yes"/>
      <point x="739" y="710"/>
      <point x="852" y="630"/>
      <point x="852" y="505" type="curve" smooth="yes"/>
      <point x="852" y="381"/>
      <point x="728" y="291"/>
      <point x="492" y="287" type="curve"/>
      <point x="492" y="286"/>
      <point x="492" y="285"/>
      <point x="487" y="285" type="curve"/>
      <point x="369" y="285" type="line"/>
      <point x="369" y="369" type="line"/>
      <point x="430" y="369" type="line" smooth="yes"/>
      <point x="500" y="369"/>
      <point x="537" y="420"/>
      <point x="537" y="505" type="curve" smooth="yes"/>
      <point x="537" y="586"/>
      <point x="500" y="625"/>
      <point x="436" y="625" type="curve" smooth="yes"/>
      <point x="393" y="625" type="line"/>
      <point x="393" y="86" type="line" smooth="yes"/>
      <point x="393" y="79"/>
      <point x="414" y="76"/>
      <point x="434" y="76" type="curve" smooth="yes"/>
      <point x="445" y="76" type="line"/>
      <point x="445" y="0" type="line"/>
    </contour>
  </outline>
</glyph>
<glyph name="S" format="2">
  <advance width="755"/>
  <unicode hex="0053"/>
  <anchor x="414" y="741.0" name="top"/>
  <anchor x="414" y="0.0" name="bottom"/>
  <outline>
    <contour>
      <point x="385" y="82" type="curve" smooth="yes"/>
      <point x="295.83700440528634" y="82.0"/>
      <point x="198.72957610877407" y="135.38814580619686"/>
      <point x="155" y="232" type="curve"/>
      <point x="26" y="232" type="line"/>
      <point x="26" y="0" type="line"/>
      <point x="128" y="0" type="line"/>
      <point x="158" y="169" type="line"/>
      <point x="155.51930530821582" y="172.72104203767626"/>
      <point x="124" y="191"/>
      <point x="85" y="181" type="curve"/>
      <point x="143.79409333505083" y="37.0558404555652"/>
      <point x="272.7169230769231" y="-10.0"/>
      <point x="413" y="-10" type="curve" smooth="yes"/>
      <point x="630" y="-10"/>
      <point x="744" y="93"/>
      <point x="744" y="238" type="curve" smooth="yes"/>
      <point x="744" y="389"/>
      <point x="620" y="433"/>
      <point x="478" y="469" type="curve" smooth="yes"/>
      <point x="355" y="500"/>
      <point x="293" y="508"/>
      <point x="293" y="565" type="curve" smooth="yes"/>
      <point x="293" y="607"/>
      <point x="324" y="629"/>
      <point x="386" y="629" type="curve" smooth="yes"/>
      <point x="466.3465909090909" y="629.0"/>
      <point x="539.4034845811392" y="588.7656856398281"/>
      <point x="565" y="513" type="curve"/>
      <point x="684" y="513" type="line"/>
      <point x="684" y="710" type="line"/>
      <point x="587" y="710" type="line"/>
      <point x="555" y="566" type="line"/>
      <point x="581.6249222813229" y="557.8077162211314"/>
      <point x="600" y="550"/>
      <point x="628" y="551" type="curve"/>
      <point x="580.2549926941365" y="677.9814024092116"/>
      <point x="493.60489510489515" y="720.0"/>
      <point x="339" y="720" type="curve" smooth="yes"/>
      <point x="164" y="720"/>
      <point x="40" y="642"/>
      <point x="40" y="501" type="curve" smooth="yes"/>
      <point x="40" y="357"/>
      <point x="161" y="296"/>
      <point x="301" y="257" type="curve" smooth="yes"/>
      <point x="426" y="222"/>
      <point x="487" y="209"/>
      <point x="487" y="153" type="curve" smooth="yes"/>
      <point x="487" y="105"/>
      <point x="453" y="82"/>
    </contour>
  </outline>
</glyph>
<glyph name="g" format="2">
  <advance width="766"/>
  <unicode hex="0067"/>
  <anchor x="351" y="545.0" name="top"/>
  <outline>
    <contour>
      <point x="352" y="244" type="curve" smooth="yes"/>
      <point x="321.0" y="244.0"/>
      <point x="306.0" y="271.2783505154639"/>
      <point x="306" y="342" type="curve" smooth="yes"/>
      <point x="306.0" y="414.7128712871287"/>
      <point x="321.0" y="444.0"/>
      <point x="352" y="444" type="curve" smooth="yes"/>
      <point x="385.0" y="444.0"/>
      <point x="399.0" y="414.7128712871287"/>
      <point x="399" y="342" type="curve" smooth="yes"/>
      <point x="399.0" y="271.2783505154639"/>
      <point x="385.0" y="244.0"/>
    </contour>
    <contour>
      <point x="352" y="169" type="curve" smooth="yes"/>
      <point x="540.0" y="169.0"/>
      <point x="663.0" y="232.36206896551724"/>
      <point x="663" y="344" type="curve" smooth="yes"/>
      <point x="663.0" y="455.62359550561797"/>
      <point x="540.0" y="523.0"/>
      <point x="352" y="523" type="curve" smooth="yes"/>
      <point x="164.0" y="523.0"/>
      <point x="44.0" y="455.62359550561797"/>
      <point x="44" y="344" type="curve" smooth="yes"/>
      <point x="44.0" y="232.36206896551724"/>
      <point x="162.0" y="169.0"/>
    </contour>
    <contour>
      <point x="571" y="407" type="line"/>
      <point x="612" y="415"/>
      <point x="681" y="410"/>
      <point x="762" y="394" type="curve"/>
      <point x="762" y="533" type="line"/>
      <point x="653" y="545"/>
      <point x="594" y="493"/>
      <point x="541" y="409" type="curve"/>
    </contour>
    <contour>
      <point x="374" y="-236" type="line" smooth="yes"/>
      <point x="593" y="-236"/>
      <point x="747.0" y="-169.0"/>
      <point x="747" y="-39" type="curve" smooth="yes"/>
      <point x="747.0" y="57.999999999999986"/>
      <point x="656.4008810572687" y="110"/>
      <point x="521" y="110" type="curve" smooth="yes"/>
      <point x="271" y="110" type="line" smooth="yes"/>
      <point x="236" y="110"/>
      <point x="222.0" y="119"/>
      <point x="222" y="138" type="curve" smooth="yes"/>
      <point x="222.0" y="157.38"/>
      <point x="248.93134287509548" y="174.98220000465437"/>
      <point x="303" y="189" type="curve"/>
      <point x="224" y="215" type="line"/>
      <point x="92" y="189"/>
      <point x="23.0" y="135"/>
      <point x="23" y="67" type="curve" smooth="yes"/>
      <point x="23.0" y="3"/>
      <point x="87" y="-46"/>
      <point x="157" y="-61" type="curve"/>
      <point x="160" y="-80" type="line"/>
      <point x="472" y="-80" type="line" smooth="yes"/>
      <point x="504" y="-80"/>
      <point x="517.0" y="-91.0"/>
      <point x="517" y="-108" type="curve" smooth="yes"/>
      <point x="517.0" y="-136.4313725490196"/>
      <point x="478.0" y="-158"/>
      <point x="374" y="-158" type="curve" smooth="yes"/>
      <point x="313" y="-158" type="line" smooth="yes"/>
      <point x="225" y="-158"/>
      <point x="189" y="-142"/>
      <point x="189" y="-109" type="curve" smooth="yes"/>
      <point x="189" y="-86"/>
      <point x="203" y="-71"/>
      <point x="243" y="-56" type="curve"/>
      <point x="192" y="-25" type="line"/>
      <point x="40" y="-44"/>
      <point x="-16" y="-74"/>
      <point x="-16" y="-127" type="curve" smooth="yes"/>
      <point x="-16.0" y="-207.0"/>
      <point x="86.88235294117646" y="-236"/>
      <point x="281" y="-236" type="curve" smooth="yes"/>
    </contour>
  </outline>
</glyph>
<glyph name="j" format="2">
  <advance width="388"/>
  <unicode hex="006A"/>
  <anchor x="189.24" y="551.0" name="top"/>
  <outline>
    <contour>
      <point x="56" y="-42" type="line" smooth="yes"/>
      <point x="56" y="-120.0"/>
      <point x="30.025974025974023" y="-146.0"/>
      <point x="-24" y="-146" type="curve" smooth="yes"/>
      <point x="-51.774647887323944" y="-146.0"/>
      <point x="-73.9652336470032" y="-139.6951893746306"/>
      <point x="-92" y="-134" type="curve"/>
      <point x="-92" y="-226" type="line"/>
      <point x="-68.04977298201467" y="-232.7060635650359"/>
      <point x="-27.5968992248062" y="-236.0"/>
      <point x="32" y="-236" type="curve" smooth="yes"/>
      <point x="249.4516129032258" y="-236.0"/>
      <point x="347.0" y="-175.0"/>
      <point x="347" y="-15" type="curve" smooth="yes"/>
      <point x="347" y="513" type="line"/>
      <point x="7" y="513" type="line"/>
      <point x="7" y="439" type="line"/>
      <point x="15" y="437" type="line" smooth="yes"/>
      <point x="36.59134533755733" y="431.60216366561065"/>
      <point x="56" y="426.0"/>
      <point x="56" y="408" type="curve" smooth="yes"/>
    </contour>
    <contour>
      <point x="194" y="567" type="curve" smooth="yes"/>
      <point x="291" y="567.0"/>
      <point x="345.0" y="601"/>
      <point x="345" y="662" type="curve" smooth="yes"/>
      <point x="345.0" y="722"/>
      <point x="291.0" y="756.0"/>
      <point x="194" y="756" type="curve" smooth="yes"/>
      <point x="100.0" y="756.0"/>
      <point x="44.0" y="722"/>
      <point x="44" y="662" type="curve" smooth="yes"/>
      <point x="44.0" y="601"/>
      <point x="100" y="567.0"/>
    </contour>
  </outline>
</glyph>
<glyph name="k" format="2">
  <advance width="866"/>
  <unicode hex="006B"/>
  <anchor x="381.48" y="0.0" name="bottom"/>
  <outline>
    <contour>
      <point x="849" y="0" type="line"/>
      <point x="849" y="71" type="line"/>
      <point x="846" y="71" type="line"/>
      <point x="820.1739130434783" y="71.0"/>
      <point x="797.6565625586531" y="81.09788866887129"/>
      <point x="780" y="110" type="curve" smooth="yes"/>
      <point x="612" y="385" type="line"/>
      <point x="506" y="269" type="line"/>
      <point x="690" y="402" type="line" smooth="yes"/>
      <point x="719" y="423"/>
      <point x="751" y="442"/>
      <point x="798" y="442" type="curve"/>
      <point x="800" y="442" type="line"/>
      <point x="800" y="513" type="line"/>
      <point x="483" y="513" type="line"/>
      <point x="483" y="442" type="line"/>
      <point x="492" y="442" type="line"/>
      <point x="520" y="442"/>
      <point x="572" y="439"/>
      <point x="572" y="424" type="curve"/>
      <point x="374" y="280" type="line"/>
      <point x="374" y="251" type="line"/>
      <point x="478" y="79" type="line"/>
      <point x="478.0" y="73.0"/>
      <point x="455.2631578947368" y="71.0"/>
      <point x="442" y="71" type="curve"/>
      <point x="438" y="71" type="line"/>
      <point x="438" y="0" type="line"/>
    </contour>
    <contour>
      <point x="351" y="735" type="line"/>
      <point x="21" y="735" type="line"/>
      <point x="21" y="661" type="line"/>
      <point x="29" y="659" type="line" smooth="yes"/>
      <point x="51.90229930734995" y="653.2744251731625"/>
      <point x="60" y="648.0"/>
      <point x="60" y="630" type="curve" smooth="yes"/>
      <point x="60" y="98" type="line" smooth="yes"/>
      <point x="60" y="77.0"/>
      <point x="42.473684210526315" y="71.0"/>
      <point x="23" y="71" type="curve"/>
      <point x="22" y="71" type="line"/>
      <point x="22" y="0" type="line"/>
      <point x="387" y="0" type="line"/>
      <point x="387" y="71" type="line"/>
      <point x="383" y="71" type="line" smooth="yes"/>
      <point x="371" y="71"/>
      <point x="351" y="73"/>
      <point x="351" y="79" type="curve" smooth="yes"/>
    </contour>
  </outline>
</glyph>
<glyph name="s" format="2">
  <advance width="646"/>
  <unicode hex="0073"/>
  <anchor x="286.36" y="546.0" name="top"/>
  <anchor x="289.9" y="0.0" name="bottom"/>
  <outline>
    <contour>
      <point x="376" y="115" type="curve" smooth="yes"/>
      <point x="376.0" y="84.28571428571428"/>
      <point x="346.0" y="72.0"/>
      <point x="295" y="72" type="curve" smooth="yes"/>
      <point x="243.85245901639345" y="72.0"/>
      <point x="192.54366753230016" y="76.47646830222946"/>
      <point x="165" y="103" type="curve"/>
      <point x="111.22478077389843" y="110.68217417515737"/>
      <point x="119.78625072836806" y="71.23828822621955"/>
      <point x="201" y="45" type="curve"/>
      <point x="201" y="156" type="line"/>
      <point x="18" y="156" type="line"/>
      <point x="18" y="42" type="line"/>
      <point x="51" y="22"/>
      <point x="153" y="-10"/>
      <point x="292" y="-10" type="curve" smooth="yes"/>
      <point x="515" y="-10.0"/>
      <point x="630.0" y="55.702702702702695"/>
      <point x="630" y="177" type="curve" smooth="yes"/>
      <point x="630.0" y="286.28484848484845"/>
      <point x="506.9403265279058" y="315.01332514425405"/>
      <point x="404" y="338" type="curve" smooth="yes"/>
      <point x="312.8493075038276" y="359.0347751914244"/>
      <point x="263.0" y="365.5692307692308"/>
      <point x="263" y="402" type="curve" smooth="yes"/>
      <point x="263.0" y="429.6923076923077"/>
      <point x="288" y="442.0"/>
      <point x="337" y="442" type="curve" smooth="yes"/>
      <point x="382.03092783505156" y="442.0"/>
      <point x="414.88509154024314" y="436.8919267678055"/>
      <point x="441" y="416" type="curve"/>
      <point x="460.60043870911" y="433.2945047433323"/>
      <point x="487.53465530196144" y="461.0334159563726"/>
      <point x="407" y="456" type="curve"/>
      <point x="407" y="371" type="line"/>
      <point x="588" y="371" type="line"/>
      <point x="588" y="475" type="line"/>
      <point x="565" y="490"/>
      <point x="482" y="523.0"/>
      <point x="334" y="523" type="curve" smooth="yes"/>
      <point x="154.82508250825083" y="523.0"/>
      <point x="29.0" y="467.67261904761904"/>
      <point x="29" y="354" type="curve" smooth="yes"/>
      <point x="29.0" y="230.70454545454544"/>
      <point x="145.18128708162192" y="203.20683273727448"/>
      <point x="241" y="179" type="curve" smooth="yes"/>
      <point x="324.9245327544385" y="158.01886681139038"/>
      <point x="376.0" y="148.47692307692307"/>
    </contour>
  </outline>
</glyph>
<glyph name="Aogonek" format="2">
  <advance width="880"/>
  <unicode hex="0104"/>
  <outline>
    <contour>
      <point x="191" y="309" type="line"/>
      <point x="173" y="224" type="line"/>
      <point x="490" y="224" type="line"/>
      <point x="489" y="309" type="line"/>
    </contour>
    <contour>
      <point x="12" y="0" type="line"/>
      <point x="248" y="0" type="line"/>
      <point x="248" y="76" type="line"/>
      <point x="234" y="76" type="line" smooth="yes"/>
      <point x="206" y="76"/>
      <point x="178" y="83"/>
      <point x="178" y="94" type="curve"/>
      <point x="404" y="710" type="line"/>
      <point x="289" y="710" type="line"/>
      <point x="69" y="119" type="line" smooth="yes"/>
      <point x="57" y="85"/>
      <point x="44" y="76"/>
      <point x="18" y="76" type="curve"/>
      <point x="12" y="76" type="line"/>
    </contour>
    <contour>
      <point x="606" y="63" type="curve"/>
      <point x="415" y="5"/>
      <point x="319" y="-50"/>
      <point x="319" y="-138" type="curve" smooth="yes"/>
      <point x="319" y="-208"/>
      <point x="388" y="-244"/>
      <point x="492" y="-244" type="curve" smooth="yes"/>
      <point x="591" y="-244"/>
      <point x="647" y="-215"/>
      <point x="690" y="-170" type="curve"/>
      <point x="632" y="-121" type="line"/>
      <point x="621" y="-131"/>
      <point x="601" y="-149"/>
      <point x="570" y="-149" type="curve" smooth="yes"/>
      <point x="542" y="-149"/>
      <point x="526" y="-136"/>
      <point x="526" y="-108" type="curve" smooth="yes"/>
      <point x="526" y="-73"/>
      <point x="550" y="-28"/>
      <point x="659" y="14" type="curve"/>
      <point x="642" y="27"/>
      <point x="618" y="41"/>
    </contour>
    <contour>
      <point x="531" y="0" type="line"/>
      <point x="868" y="0" type="line"/>
      <point x="868" y="76" type="line"/>
      <point x="863" y="76" type="line"/>
      <point x="836" y="76"/>
      <point x="819" y="81"/>
      <point x="811" y="104" type="curve" smooth="yes"/>
      <point x="585" y="710" type="line"/>
      <point x="333" y="710" type="line"/>
      <point x="301" y="642" type="line"/>
    </contour>
  </outline>
</glyph>
<glyph name="numero" format="2">
  <advance width="1491"/>
  <unicode hex="2116"/>
  <outline>
    <contour>
      <point x="948" y="237" type="line"/>
      <point x="1397" y="237" type="line"/>
      <point x="1397" y="141" type="line"/>
      <point x="948" y="141" type="line"/>
    </contour>
    <component base="N" xOffset="112.32000000000008"/>
    <component base="ordmasculine" xOffset="822.3200000000002"/>
  </outline>
</glyph>
<glyph name="uni25BE" format="2">
  <advance width="767"/>
  <unicode hex="25BE"/>
  <outline>
    <contour>
      <point x="65" y="464" type="line"/>
      <point x="383" y="91" type="line"/>
      <point x="701" y="464" type="line"/>
    </contour>
  </outline>
</glyph>
<glyph name="acute.ucpl" format="2">
  <advance width="595"/>
  <anchor x="224.64000000000004" y="694.0" name="_top"/>
  <outline>
    <contour>
      <point x="191" y="870" type="curve" smooth="yes"/>
      <point x="188" y="780" type="line"/>
      <point x="188" y="754" type="line"/>
      <point x="282" y="754" type="line"/>
      <point x="328" y="806" type="line" smooth="yes"/>
      <point x="380" y="860"/>
      <point x="401" y="891"/>
      <point x="401" y="922" type="curve" smooth="yes"/>
      <point x="401" y="957"/>
      <point x="371" y="986"/>
      <point x="306" y="986" type="curve" smooth="yes"/>
      <point x="227" y="986"/>
      <point x="194" y="944"/>
    </contour>
  </outline>
</glyph>
<glyph name="f_f_i.alt" format="2">
  <advance width="1272"/>
  <outline>
    <contour>
      <point x="0" y="513" type="line"/>
      <point x="0" y="433" type="line"/>
      <point x="521" y="433" type="line"/>
      <point x="521" y="513" type="line"/>
    </contour>
    <contour>
      <point x="421" y="513" type="line"/>
      <point x="421" y="433" type="line"/>
      <point x="924" y="433" type="line"/>
      <point x="924" y="513" type="line"/>
    </contour>
    <contour>
      <point x="889" y="0" type="line"/>
      <point x="1258" y="0" type="line"/>
      <point x="1258" y="71" type="line"/>
      <point x="1257" y="71" type="line" smooth="yes"/>
      <point x="1236" y="71"/>
      <point x="1217" y="77"/>
      <point x="1217" y="98" type="curve" smooth="yes"/>
      <point x="1217" y="513" type="line"/>
      <point x="886" y="513" type="line"/>
      <point x="886" y="433" type="line"/>
      <point x="894" y="433" type="line" smooth="yes"/>
      <point x="919" y="433"/>
      <point x="926" y="422"/>
      <point x="926" y="404" type="curve"/>
      <point x="926" y="79" type="line"/>
      <point x="926" y="73"/>
      <point x="906" y="71"/>
      <point x="894" y="71" type="curve" smooth="yes"/>
      <point x="889" y="71" type="line"/>
    </contour>
    <contour>
      <point x="795" y="79" type="curve" smooth="yes"/>
      <point x="795" y="555" type="line" smooth="yes"/>
      <point x="795" y="631"/>
      <point x="821" y="664"/>
      <point x="899" y="664" type="curve" smooth="yes"/>
      <point x="950" y="664"/>
      <point x="975" y="646"/>
      <point x="981" y="632" type="curve"/>
      <point x="1013" y="637"/>
      <point x="1006" y="688"/>
      <point x="954" y="689" type="curve"/>
      <point x="954" y="580" type="line"/>
      <point x="1184" y="580" type="line"/>
      <point x="1184" y="704" type="line"/>
      <point x="1133" y="723"/>
      <point x="1026" y="748"/>
      <point x="883" y="748" type="curve" smooth="yes"/>
      <point x="672" y="748"/>
      <point x="505" y="692"/>
      <point x="505" y="543" type="curve" smooth="yes"/>
      <point x="505" y="79" type="line"/>
      <point x="505" y="73"/>
      <point x="485" y="71"/>
      <point x="473" y="71" type="curve" smooth="yes"/>
      <point x="469" y="71" type="line"/>
      <point x="469" y="0" type="line"/>
      <point x="839" y="0" type="line"/>
      <point x="839" y="71" type="line"/>
      <point x="836" y="71" type="line" smooth="yes"/>
      <point x="810" y="71"/>
      <point x="795" y="73"/>
    </contour>
    <contour>
      <point x="374" y="79" type="curve" smooth="yes"/>
      <point x="374" y="543" type="line" smooth="yes"/>
      <point x="374" y="620"/>
      <point x="391" y="652"/>
      <point x="459" y="652" type="curve" smooth="yes"/>
      <point x="507" y="652"/>
      <point x="529" y="634"/>
      <point x="535" y="603" type="curve"/>
      <point x="535" y="652"/>
      <point x="555" y="676"/>
      <point x="505" y="674" type="curve"/>
      <point x="505" y="543" type="line"/>
      <point x="649" y="577" type="line"/>
      <point x="673" y="698" type="line"/>
      <point x="642" y="716"/>
      <point x="555" y="736"/>
      <point x="432" y="736" type="curve" smooth="yes"/>
      <point x="235" y="736"/>
      <point x="84" y="680"/>
      <point x="84" y="532" type="curve" smooth="yes"/>
      <point x="84" y="102" type="line"/>
      <point x="84" y="80"/>
      <point x="67" y="71"/>
      <point x="33" y="71" type="curve" smooth="yes"/>
      <point x="19" y="71" type="line"/>
      <point x="19" y="0" type="line"/>
      <point x="418" y="0" type="line"/>
      <point x="418" y="71" type="line"/>
      <point x="415" y="71" type="line" smooth="yes"/>
      <point x="389" y="71"/>
      <point x="374" y="73"/>
    </contour>
  </outline>
</glyph>
<glyph name="four.old" format="2">
  <advance width="666"/>
  <outline>
    <contour>
      <point x="26" y="10" type="line"/>
      <point x="661" y="10" type="line"/>
      <point x="661" y="150" type="line"/>
      <point x="132" y="150" type="line"/>
      <point x="92" y="73" type="line"/>
      <point x="361" y="473" type="line"/>
      <point x="379" y="548" type="line"/>
      <point x="300" y="548" type="line"/>
      <point x="26" y="151" type="line"/>
    </contour>
    <contour>
      <point x="588" y="-146" type="line"/>
      <point x="588" y="548" type="line"/>
      <point x="337" y="548" type="line"/>
      <point x="319" y="461" type="line"/>
      <point x="319" y="-146" type="line"/>
    </contour>
  </outline>
</glyph>
<glyph name="nine.old" format="2">
  <advance width="664"/>
  <outline>
    <contour>
      <point x="77" y="-79" type="line"/>
      <point x="264" y="-53"/>
      <point x="381" y="50"/>
      <point x="381" y="278" type="curve" smooth="yes"/>
      <point x="381.0" y="437.18367346938777"/>
      <point x="366.0" y="473.0"/>
      <point x="334" y="473" type="curve" smooth="yes"/>
      <point x="300.0" y="473.0"/>
      <point x="286.0" y="435.2695035460993"/>
      <point x="286" y="333" type="curve" smooth="yes"/>
      <point x="286" y="250"/>
      <point x="292" y="202"/>
      <point x="339" y="202" type="curve" smooth="yes"/>
      <point x="371" y="202"/>
      <point x="392" y="226"/>
      <point x="423" y="288" type="curve"/>
      <point x="428" y="217" type="line"/>
      <point x="409" y="169"/>
      <point x="364" y="117"/>
      <point x="258" y="117" type="curve" smooth="yes"/>
      <point x="115" y="117"/>
      <point x="17" y="189"/>
      <point x="17" y="327" type="curve" smooth="yes"/>
      <point x="17.0" y="469.3836206896552"/>
      <point x="139.8" y="558.0"/>
      <point x="324" y="558" type="curve" smooth="yes"/>
      <point x="531.93125" y="558.0"/>
      <point x="647.0" y="469.5625"/>
      <point x="647" y="275" type="curve" smooth="yes"/>
      <point x="647.0" y="32.23502304147462"/>
      <point x="438.02623300577187" y="-135.99786475534415"/>
      <point x="94" y="-164" type="curve"/>
    </contour>
  </outline>
</glyph>
<glyph name="one.lin" format="2">
  <advance width="666"/>
  <outline>
    <contour>
      <point x="515" y="120" type="curve" smooth="yes"/>
      <point x="515" y="710" type="line"/>
      <point x="275" y="710" type="line"/>
      <point x="234" y="661"/>
      <point x="182" y="634"/>
      <point x="48" y="633" type="curve"/>
      <point x="48" y="516" type="line"/>
      <point x="159" y="515"/>
      <point x="226" y="540"/>
      <point x="259" y="622" type="curve"/>
      <point x="245" y="635"/>
      <point x="251" y="624"/>
      <point x="234" y="615" type="curve"/>
      <point x="234" y="120" type="line" smooth="yes"/>
      <point x="234" y="83"/>
      <point x="175" y="76"/>
      <point x="106" y="76" type="curve" smooth="yes"/>
      <point x="71" y="76" type="line"/>
      <point x="71" y="0" type="line"/>
      <point x="662" y="0" type="line"/>
      <point x="662" y="76" type="line"/>
      <point x="643" y="76" type="line" smooth="yes"/>
      <point x="568" y="76"/>
      <point x="515" y="83"/>
    </contour>
  </outline>
</glyph>
<glyph name="one.old" format="2">
  <advance width="666"/>
  <outline>
    <contour>
      <point x="510" y="120" type="curve" smooth="yes"/>
      <point x="510" y="548" type="line"/>
      <point x="281" y="548" type="line"/>
      <point x="240" y="499"/>
      <point x="182" y="472"/>
      <point x="48" y="471" type="curve"/>
      <point x="48" y="354" type="line"/>
      <point x="159" y="353"/>
      <point x="232" y="378"/>
      <point x="265" y="460" type="curve"/>
      <point x="251" y="473"/>
      <point x="257" y="462"/>
      <point x="240" y="453" type="curve"/>
      <point x="240" y="120" type="line" smooth="yes"/>
      <point x="240" y="83"/>
      <point x="181" y="76"/>
      <point x="112" y="76" type="curve" smooth="yes"/>
      <point x="71" y="76" type="line"/>
      <point x="71" y="0" type="line"/>
      <point x="662" y="0" type="line"/>
      <point x="662" y="76" type="line"/>
      <point x="639" y="76" type="line" smooth="yes"/>
      <point x="564" y="76"/>
      <point x="510" y="83"/>
    </contour>
  </outline>
</glyph>
<glyph name="seven.old" format="2">
  <advance width="666"/>
  <outline>
    <contour>
      <point x="268" y="402" type="line" smooth="yes"/>
      <point x="195" y="402"/>
      <point x="167" y="395"/>
      <point x="163" y="359" type="curve" smooth="yes"/>
      <point x="155" y="284" type="line"/>
      <point x="60" y="284" type="line"/>
      <point x="60" y="548" type="line"/>
      <point x="641" y="548" type="line"/>
      <point x="641" y="415" type="line"/>
      <point x="517" y="270"/>
      <point x="446" y="169"/>
      <point x="438" y="-137" type="curve"/>
      <point x="176" y="-137" type="line"/>
      <point x="201" y="154"/>
      <point x="448" y="352"/>
      <point x="558" y="437" type="curve"/>
      <point x="588" y="402" type="line"/>
    </contour>
  </outline>
</glyph>
<glyph name="three.lin" format="2">
  <advance width="666"/>
  <outline>
    <contour>
      <point x="309" y="629" type="curve" smooth="yes"/>
      <point x="273" y="629"/>
      <point x="248" y="608"/>
      <point x="231" y="582" type="curve"/>
      <point x="226" y="590"/>
      <point x="222" y="638"/>
      <point x="261" y="641" type="curve"/>
      <point x="261" y="528" type="line"/>
      <point x="61" y="528" type="line"/>
      <point x="61" y="645" type="line"/>
      <point x="113" y="683"/>
      <point x="211" y="720"/>
      <point x="344" y="720" type="curve" smooth="yes"/>
      <point x="506" y="720"/>
      <point x="634" y="666"/>
      <point x="634" y="551" type="curve" smooth="yes"/>
      <point x="634" y="425"/>
      <point x="465" y="371"/>
      <point x="254" y="371" type="curve"/>
      <point x="275" y="389" type="line"/>
      <point x="546" y="389"/>
      <point x="654" y="318"/>
      <point x="654" y="201" type="curve" smooth="yes"/>
      <point x="654" y="63"/>
      <point x="509" y="-10"/>
      <point x="329" y="-10" type="curve" smooth="yes"/>
      <point x="137" y="-10"/>
      <point x="54" y="69"/>
      <point x="14" y="160" type="curve"/>
      <point x="121" y="214" type="line"/>
      <point x="150" y="159"/>
      <point x="190" y="83"/>
      <point x="281" y="83" type="curve" smooth="yes"/>
      <point x="351" y="83"/>
      <point x="388" y="126"/>
      <point x="388" y="208" type="curve" smooth="yes"/>
      <point x="388" y="283"/>
      <point x="366" y="335"/>
      <point x="248" y="335" type="curve" smooth="yes"/>
      <point x="201" y="335" type="line"/>
      <point x="201" y="420" type="line"/>
      <point x="234" y="420" type="line" smooth="yes"/>
      <point x="336" y="420"/>
      <point x="376" y="458"/>
      <point x="376" y="545" type="curve" smooth="yes"/>
      <point x="376" y="605"/>
      <point x="353" y="629"/>
    </contour>
  </outline>
</glyph>
<glyph name="three.old" format="2">
  <advance width="666"/>
  <outline>
    <contour>
      <point x="279" y="-57" type="curve" smooth="yes"/>
      <point x="351" y="-57"/>
      <point x="388" y="-16"/>
      <point x="388" y="61" type="curve" smooth="yes"/>
      <point x="388" y="130"/>
      <point x="367" y="181"/>
      <point x="254" y="181" type="curve" smooth="yes"/>
      <point x="201" y="181" type="line"/>
      <point x="201" y="266" type="line"/>
      <point x="239" y="266" type="line" smooth="yes"/>
      <point x="337" y="266"/>
      <point x="376" y="303"/>
      <point x="376" y="388" type="curve" smooth="yes"/>
      <point x="376" y="446"/>
      <point x="351" y="469"/>
      <point x="312" y="469" type="curve" smooth="yes"/>
      <point x="273" y="469"/>
      <point x="252" y="448"/>
      <point x="234" y="422" type="curve"/>
      <point x="230" y="430"/>
      <point x="232" y="476"/>
      <point x="270" y="479" type="curve"/>
      <point x="270" y="364" type="line"/>
      <point x="65" y="364" type="line"/>
      <point x="65" y="482" type="line"/>
      <point x="118" y="521"/>
      <point x="210" y="558"/>
      <point x="343" y="558" type="curve" smooth="yes"/>
      <point x="500" y="558"/>
      <point x="634" y="506"/>
      <point x="634" y="391" type="curve" smooth="yes"/>
      <point x="634" y="270"/>
      <point x="465" y="217"/>
      <point x="254" y="217" type="curve"/>
      <point x="275" y="235" type="line"/>
      <point x="546" y="235"/>
      <point x="654" y="166"/>
      <point x="654" y="54" type="curve" smooth="yes"/>
      <point x="654" y="-79"/>
      <point x="510" y="-150"/>
      <point x="329" y="-150" type="curve" smooth="yes"/>
      <point x="150" y="-150"/>
      <point x="57" y="-80"/>
      <point x="28" y="4" type="curve"/>
      <point x="136" y="58" type="line"/>
      <point x="153" y="16"/>
      <point x="194" y="-57"/>
    </contour>
  </outline>
</glyph>
<glyph name="two.lin" format="2">
  <advance width="664"/>
  <outline>
    <contour>
      <point x="315" y="720" type="curve" smooth="yes"/>
      <point x="517.0" y="720.0"/>
      <point x="621.0" y="642.615"/>
      <point x="621" y="519" type="curve" smooth="yes"/>
      <point x="621.0" y="345.4317617866005"/>
      <point x="355.9151920905664" y="209.96279653029563"/>
      <point x="144" y="117" type="curve"/>
      <point x="118" y="118"/>
      <point x="125" y="139"/>
      <point x="126" y="145" type="curve"/>
      <point x="382" y="145" type="line" smooth="yes"/>
      <point x="472.0" y="145"/>
      <point x="505" y="152"/>
      <point x="513" y="193" type="curve" smooth="yes"/>
      <point x="522" y="242" type="line"/>
      <point x="631" y="242" type="line"/>
      <point x="631" y="0" type="line"/>
      <point x="22" y="0" type="line"/>
      <point x="22" y="158" type="line"/>
      <point x="217.1344407887906" y="271.0779067135044"/>
      <point x="350.0" y="374.59178082191784"/>
      <point x="350" y="524" type="curve" smooth="yes"/>
      <point x="350.0" y="606.2314814814815"/>
      <point x="325.0" y="631.0"/>
      <point x="281" y="631" type="curve" smooth="yes"/>
      <point x="245" y="631.0"/>
      <point x="212" y="611"/>
      <point x="196" y="584" type="curve"/>
      <point x="191" y="592"/>
      <point x="184" y="638"/>
      <point x="232" y="642" type="curve"/>
      <point x="232" y="504" type="line"/>
      <point x="27" y="504" type="line"/>
      <point x="27" y="655" type="line"/>
      <point x="84" y="689"/>
      <point x="186.0" y="720.0"/>
    </contour>
  </outline>
</glyph>
<glyph name="two.old" format="2">
  <advance width="664"/>
  <outline>
    <contour>
      <point x="282" y="469" type="curve" smooth="yes"/>
      <point x="244" y="469.0"/>
      <point x="210.74603773483454" y="450.6190566022518"/>
      <point x="195" y="427" type="curve"/>
      <point x="190.0300978059492" y="434.9518435104813"/>
      <point x="189.30017070918356" y="474.5500134770408"/>
      <point x="233" y="478" type="curve"/>
      <point x="233" y="355" type="line"/>
      <point x="29" y="355" type="line"/>
      <point x="29" y="494" type="line"/>
      <point x="99" y="533"/>
      <point x="197" y="558"/>
      <point x="317" y="558" type="curve" smooth="yes"/>
      <point x="512" y="558"/>
      <point x="615.0" y="498.51552795031057"/>
      <point x="615" y="401" type="curve" smooth="yes"/>
      <point x="615.0" y="257.9520295202952"/>
      <point x="358.22542661830744" y="179.28800349093862"/>
      <point x="140" y="128" type="curve"/>
      <point x="119.19764475228415" y="118.84696369100503"/>
      <point x="125.12540957739533" y="132.37950535134863"/>
      <point x="126" y="142" type="curve"/>
      <point x="384" y="142" type="line" smooth="yes"/>
      <point x="475.0" y="142"/>
      <point x="506" y="148"/>
      <point x="514" y="185" type="curve" smooth="yes"/>
      <point x="522" y="223" type="line"/>
      <point x="631" y="223" type="line"/>
      <point x="631" y="0" type="line"/>
      <point x="22" y="0" type="line"/>
      <point x="22" y="162" type="line"/>
      <point x="213" y="236"/>
      <point x="344" y="289"/>
      <point x="344" y="406" type="curve" smooth="yes"/>
      <point x="344" y="450"/>
      <point x="325" y="469.0"/>
    </contour>
  </outline>
</glyph>
<glyph name="whitesquare" format="2">
  <advance width="699"/>
  <outline>
    <contour>
      <point x="101" y="104" type="line"/>
      <point x="598" y="104" type="line"/>
      <point x="598" y="522" type="line"/>
      <point x="101" y="522" type="line"/>
    </contour>
    <contour>
      <point x="166" y="159" type="line"/>
      <point x="166" y="467" type="line"/>
      <point x="533" y="467" type="line"/>
      <point x="533" y="159" type="line"/>
    </contour>
  </outline>
</glyph>
<glyph name="zero.old" format="2">
  <advance width="666"/>
  <outline>
    <contour>
      <point x="333" y="-11" type="curve" smooth="yes"/>
      <point x="520" y="-11"/>
      <point x="653" y="97"/>
      <point x="653" y="273" type="curve" smooth="yes"/>
      <point x="653" y="449"/>
      <point x="520" y="558"/>
      <point x="333" y="558" type="curve" smooth="yes"/>
      <point x="146" y="558"/>
      <point x="13" y="449"/>
      <point x="13" y="273" type="curve" smooth="yes"/>
      <point x="13" y="97"/>
      <point x="146" y="-11"/>
    </contour>
    <contour>
      <point x="286" y="235" type="curve" smooth="yes"/>
      <point x="286" y="367"/>
      <point x="296" y="408"/>
      <point x="333" y="431" type="curve" smooth="yes"/>
      <point x="370" y="454"/>
      <point x="379" y="444"/>
      <point x="379" y="311" type="curve" smooth="yes"/>
      <point x="379" y="180"/>
      <point x="370" y="139"/>
      <point x="333" y="116" type="curve" smooth="yes"/>
      <point x="296" y="92"/>
      <point x="286" y="103"/>
    </contour>
  </outline>
</glyph>
<glyph name="zero.slash" format="2">
  <advance width="664"/>
  <outline>
    <contour>
      <point x="195" y="134" type="line"/>
      <point x="470" y="371" type="line"/>
      <point x="470" y="474" type="line"/>
      <point x="195" y="237" type="line"/>
    </contour>
    <contour>
      <point x="332" y="-10" type="curve" smooth="yes"/>
      <point x="519.0" y="-10.0"/>
      <point x="651.0" y="110"/>
      <point x="651" y="304" type="curve" smooth="yes"/>
      <point x="651" y="499"/>
      <point x="519" y="619"/>
      <point x="332" y="619" type="curve" smooth="yes"/>
      <point x="145" y="619"/>
      <point x="13" y="499"/>
      <point x="13" y="304" type="curve" smooth="yes"/>
      <point x="13.0" y="110"/>
      <point x="145.00000000000003" y="-10.0"/>
    </contour>
    <contour>
      <point x="332" y="79" type="curve" smooth="yes"/>
      <point x="284.0" y="79.0"/>
      <point x="271.0" y="126"/>
      <point x="271" y="304" type="curve" smooth="yes"/>
      <point x="271" y="483"/>
      <point x="284" y="530"/>
      <point x="332" y="530" type="curve" smooth="yes"/>
      <point x="380" y="530"/>
      <point x="393" y="483"/>
      <point x="393" y="304" type="curve" smooth="yes"/>
      <point x="393.0" y="126"/>
      <point x="380.0" y="79.0"/>
    </contour>
  </outline>
</glyph>
